<?xml version="1.0" standalone="no"?>
<!DOCTYPE svg PUBLIC "-//W3C//DTD SVG 20010904//EN"
 "http://www.w3.org/TR/2001/REC-SVG-20010904/DTD/svg10.dtd">
<svg version="1.0" xmlns="http://www.w3.org/2000/svg"
 width="737.000000pt" height="737.000000pt" viewBox="0 0 737.000000 737.000000"
 preserveAspectRatio="xMidYMid meet">
<metadata>
Created by potrace 1.16, written by Peter Selinger 2001-2019
</metadata>
<g transform="translate(0.000000,737.000000) scale(0.100000,-0.100000)"
fill="#000000" stroke="none">
<path d="M3485 6284 c-16 -2 -73 -9 -125 -15 -314 -35 -673 -156 -963 -321
-713 -409 -1183 -1109 -1299 -1938 -17 -126 -17 -534 0 -660 49 -344 160 -676
324 -963 381 -665 1023 -1125 1775 -1271 192 -37 359 -50 577 -43 218 7 340
23 546 73 191 47 330 98 525 194 267 131 476 281 690 495 214 214 364 423 495
690 127 258 204 502 246 780 23 149 26 569 6 710 -86 593 -337 1101 -746 1511
-402 402 -906 654 -1478 740 -98 14 -506 28 -573 18z m446 -749 c428 -56 809
-250 1111 -563 283 -294 457 -664 508 -1085 16 -123 8 -400 -14 -522 -122
-676 -590 -1229 -1226 -1450 -742 -257 -1555 -33 -2055 566 -476 570 -570
1370 -240 2030 285 569 819 946 1455 1028 105 14 347 12 461 -4z"/>
</g>
</svg>
