<?xml version="1.0" standalone="no"?>
<!DOCTYPE svg PUBLIC "-//W3C//DTD SVG 20010904//EN"
 "http://www.w3.org/TR/2001/REC-SVG-20010904/DTD/svg10.dtd">
<svg version="1.0" xmlns="http://www.w3.org/2000/svg"
 width="737.000000pt" height="737.000000pt" viewBox="0 0 737.000000 737.000000"
 preserveAspectRatio="xMidYMid meet">
<metadata>
Created by potrace 1.16, written by Peter Selinger 2001-2019
</metadata>
<g transform="translate(0.000000,737.000000) scale(0.100000,-0.100000)"
fill="#000000" stroke="none">
<path d="M3495 6283 c-607 -41 -1211 -319 -1650 -758 -405 -404 -659 -918
-742 -1500 -22 -151 -22 -539 0 -690 84 -585 336 -1094 742 -1500 404 -404
911 -656 1490 -742 167 -24 543 -24 710 0 416 62 754 191 1100 422 619 413
1020 1055 1132 1810 24 167 24 543 0 710 -61 409 -192 755 -412 1085 -111 166
-197 272 -330 405 -538 538 -1272 810 -2040 758z"/>
</g>
</svg>
