<?xml version="1.0" standalone="no"?>
<!DOCTYPE svg PUBLIC "-//W3C//DTD SVG 20010904//EN"
 "http://www.w3.org/TR/2001/REC-SVG-20010904/DTD/svg10.dtd">
<svg version="1.0" xmlns="http://www.w3.org/2000/svg"
 width="737.000000pt" height="737.000000pt" viewBox="0 0 737.000000 737.000000"
 preserveAspectRatio="xMidYMid meet">
<metadata>
Created by potrace 1.16, written by Peter Selinger 2001-2019
</metadata>
<g transform="translate(0.000000,737.000000) scale(0.100000,-0.100000)"
fill="#000000" stroke="none">
<path d="M160 3680 l0 -3530 3530 0 3530 0 0 3530 0 3530 -3530 0 -3530 0 0
-3530z m1240 3105 l405 -405 -408 -408 -407 -407 -407 407 -408 408 405 405
c223 223 407 405 410 405 3 0 187 -182 410 -405z m5400 0 l405 -405 -405 -405
-405 -405 -407 407 -408 408 402 402 c222 222 405 403 408 403 3 0 187 -182
410 -405z m-2908 142 c182 -70 320 -227 364 -413 21 -91 14 -235 -16 -321
-116 -331 -488 -483 -809 -331 -79 37 -212 165 -254 245 -38 71 -67 192 -67
277 0 256 181 491 431 561 87 24 266 15 351 -18z m213 -2837 l410 -410 -413
-413 -412 -412 -412 412 -413 413 410 410 c225 225 412 410 415 410 3 0 190
-185 415 -410z m-2980 155 c109 -28 184 -72 271 -159 126 -126 181 -265 171
-436 -13 -236 -167 -442 -390 -520 -86 -30 -230 -37 -321 -16 -187 44 -346
186 -416 371 -31 83 -39 244 -15 335 54 207 217 370 425 424 73 19 202 20 275
1z m5387 4 c77 -16 205 -81 266 -135 66 -58 125 -145 159 -232 34 -89 43 -247
19 -341 -27 -107 -74 -189 -151 -267 -182 -182 -440 -226 -675 -112 -90 43
-214 168 -258 260 -87 179 -78 391 24 559 42 69 152 174 221 212 108 58 272
81 395 56z m-5112 -2864 l405 -405 -408 -408 -407 -407 -407 407 -408 408 405
405 c223 223 407 405 410 405 3 0 187 -182 410 -405z m5398 -812 l-408 -408
-405 405 -405 405 407 407 408 408 405 -405 405 -405 -407 -407z m-2986 972
c114 -24 193 -68 284 -159 120 -120 174 -247 174 -406 -1 -269 -179 -499 -441
-566 -95 -24 -252 -15 -343 20 -278 106 -430 401 -356 690 26 103 62 166 139
248 74 79 149 128 241 157 111 34 196 39 302 16z"/>
</g>
</svg>
