<?xml version="1.0" standalone="no"?>
<!DOCTYPE svg PUBLIC "-//W3C//DTD SVG 20010904//EN"
 "http://www.w3.org/TR/2001/REC-SVG-20010904/DTD/svg10.dtd">
<svg version="1.0" xmlns="http://www.w3.org/2000/svg"
 width="737.000000pt" height="737.000000pt" viewBox="0 0 737.000000 737.000000"
 preserveAspectRatio="xMidYMid meet">
<metadata>
Created by potrace 1.16, written by Peter Selinger 2001-2019
</metadata>
<g transform="translate(0.000000,737.000000) scale(0.100000,-0.100000)"
fill="#000000" stroke="none">
<path d="M6370 6355 l-835 -835 46 -47 c316 -332 553 -776 653 -1223 81 -368
81 -773 0 -1140 -237 -1065 -1119 -1868 -2214 -2016 -169 -23 -491 -23 -659 0
-538 73 -1009 290 -1416 652 l-97 87 -834 -834 c-459 -459 -834 -837 -834
-841 0 -5 1584 -8 3520 -8 l3520 0 0 3520 c0 1936 -3 3520 -8 3520 -4 0 -383
-376 -842 -835z"/>
<path d="M3440 5535 c-853 -117 -1512 -794 -1611 -1655 -15 -131 -7 -391 16
-520 60 -335 215 -660 432 -905 43 -49 83 -90 88 -92 6 -2 604 591 1330 1318
l1320 1320 -74 69 c-261 244 -634 416 -1007 465 -137 18 -362 18 -494 0z"/>
</g>
</svg>
