<?xml version="1.0" standalone="no"?>
<!DOCTYPE svg PUBLIC "-//W3C//DTD SVG 20010904//EN"
 "http://www.w3.org/TR/2001/REC-SVG-20010904/DTD/svg10.dtd">
<svg version="1.0" xmlns="http://www.w3.org/2000/svg"
 width="64.000000pt" height="64.000000pt" viewBox="0 0 64.000000 64.000000"
 preserveAspectRatio="xMidYMid meet">
<metadata>
Created by potrace 1.16, written by Peter Selinger 2001-2019
</metadata>
<g transform="translate(0.000000,64.000000) scale(0.100000,-0.100000)"
fill="#000000" stroke="none">
<path d="M295 480 c-9 -10 -20 -40 -22 -65 -5 -39 -9 -45 -29 -45 -21 0 -24
-5 -24 -40 0 -36 3 -40 25 -40 25 0 25 -1 25 -80 l0 -80 40 0 40 0 0 79 c0 79
0 80 28 83 23 3 27 8 30 41 3 35 2 37 -27 37 -28 0 -31 3 -31 29 0 26 4 30 33
33 28 3 32 7 35 36 l3 32 -54 0 c-41 0 -58 -5 -72 -20z"/>
</g>
</svg>
