<?xml version="1.0" standalone="no"?>
<!DOCTYPE svg PUBLIC "-//W3C//DTD SVG 20010904//EN"
 "http://www.w3.org/TR/2001/REC-SVG-20010904/DTD/svg10.dtd">
<svg version="1.0" xmlns="http://www.w3.org/2000/svg"
 width="64.000000pt" height="64.000000pt" viewBox="0 0 64.000000 64.000000"
 preserveAspectRatio="xMidYMid meet">
<metadata>
Created by potrace 1.16, written by Peter Selinger 2001-2019
</metadata>
<g transform="translate(0.000000,64.000000) scale(0.100000,-0.100000)"
fill="#000000" stroke="none">
<path d="M184 500 c-46 -18 -54 -46 -54 -181 0 -144 11 -170 78 -189 48 -13
176 -13 224 0 66 19 78 45 78 181 0 135 -7 162 -49 184 -33 17 -238 21 -277 5z
m261 -55 c23 -23 25 -31 25 -130 0 -143 -2 -145 -150 -145 -148 0 -150 2 -150
145 0 99 2 107 25 130 22 23 31 25 125 25 94 0 103 -2 125 -25z"/>
<path d="M249 391 c-64 -65 -20 -171 71 -171 91 0 135 106 71 171 -23 23 -38
29 -71 29 -33 0 -48 -6 -71 -29z"/>
</g>
</svg>
