<?xml version="1.0" standalone="no"?>
<!DOCTYPE svg PUBLIC "-//W3C//DTD SVG 20010904//EN"
 "http://www.w3.org/TR/2001/REC-SVG-20010904/DTD/svg10.dtd">
<svg version="1.0" xmlns="http://www.w3.org/2000/svg"
 width="454.000000pt" height="454.000000pt" viewBox="0 0 454.000000 454.000000"
 preserveAspectRatio="xMidYMid meet">

<g transform="translate(0.000000,454.000000) scale(0.100000,-0.100000)"
fill="#000000" stroke="none">
<path d="M1470 3818 c-154 -54 -264 -182 -316 -368 -26 -93 -26 -377 0 -470
45 -165 142 -291 268 -350 160 -75 367 -55 501 49 95 73 160 180 194 320 24
95 23 342 -1 436 -44 172 -144 303 -283 367 -62 29 -78 32 -183 35 -99 3 -124
1 -180 -19z m297 -124 c88 -43 150 -133 189 -274 13 -48 18 -102 18 -205 0
-103 -5 -157 -18 -205 -56 -203 -161 -304 -320 -303 -158 0 -263 94 -323 288
-26 86 -26 354 0 440 63 203 183 304 347 289 30 -2 79 -16 107 -30z"/>
<path d="M2619 3817 c-81 -28 -136 -64 -196 -131 -56 -62 -88 -126 -115 -224
-17 -63 -21 -108 -22 -247 0 -150 2 -180 23 -252 69 -245 236 -374 486 -376
115 0 188 13 298 55 l77 29 0 270 0 269 -205 0 -205 0 0 -60 0 -60 135 0 135
0 -2 -172 -3 -173 -65 -18 c-39 -12 -101 -20 -155 -21 -80 -1 -96 2 -147 27
-93 46 -157 137 -195 277 -24 91 -24 329 1 419 37 135 100 222 194 268 47 23
68 27 136 27 117 -1 200 -44 228 -119 l12 -35 68 0 c64 0 68 1 68 23 -1 66
-80 166 -163 205 -68 32 -120 42 -227 41 -72 0 -111 -5 -161 -22z"/>
<path d="M3685 3819 c-162 -57 -269 -182 -322 -379 -24 -90 -25 -356 0 -452
47 -190 159 -321 323 -379 83 -29 224 -29 316 0 159 51 276 189 325 386 26
106 23 353 -5 458 -45 164 -137 281 -271 346 -70 33 -82 35 -190 38 -98 3
-125 0 -176 -18z m292 -125 c88 -42 153 -136 190 -274 24 -91 24 -319 0 -410
-54 -201 -163 -303 -322 -303 -129 0 -225 66 -286 198 -100 212 -69 570 60
718 91 103 234 132 358 71z"/>
<path d="M250 3215 l0 -595 390 0 390 0 0 65 0 65 -310 0 -310 0 0 530 0 530
-80 0 -80 0 0 -595z"/>
<path d="M140 2231 c0 -27 5 -95 10 -152 127 -1254 1297 -2120 2530 -1873 944
189 1644 996 1697 1957 l6 117 -300 0 -300 0 -6 -92 c-18 -274 -105 -528 -258
-759 -81 -122 -271 -313 -396 -397 -736 -499 -1722 -279 -2175 485 -108 183
-178 404 -199 633 l-13 130 -298 0 -298 0 0 -49z"/>
</g>
</svg>
