<?xml version="1.0" standalone="no"?>
<!DOCTYPE svg PUBLIC "-//W3C//DTD SVG 20010904//EN"
 "http://www.w3.org/TR/2001/REC-SVG-20010904/DTD/svg10.dtd">
<svg version="1.0" xmlns="http://www.w3.org/2000/svg"
 width="404.000000pt" height="103.000000pt" viewBox="0 0 404.000000 103.000000"
 preserveAspectRatio="xMidYMid meet">

<g transform="translate(0.000000,103.000000) scale(0.100000,-0.100000)"
fill="#000000" stroke="none">
<path d="M1166 1005 c-142 -36 -271 -140 -331 -267 -142 -298 20 -638 341
-714 89 -21 235 -14 318 15 204 72 336 259 336 476 0 217 -132 404 -336 476
-78 28 -245 35 -328 14z m307 -115 c68 -26 150 -88 189 -145 83 -121 88 -311
13 -440 -162 -276 -627 -252 -756 39 -27 62 -38 159 -28 236 22 158 139 283
304 327 71 18 206 10 278 -17z"/>
<path d="M1196 624 c-22 -22 -20 -38 10 -73 l26 -31 -26 -31 c-28 -33 -29 -38
-20 -63 16 -41 69 -39 101 3 8 11 16 13 26 6 8 -5 26 -18 41 -29 24 -17 28
-17 51 -2 32 21 32 53 -1 87 l-25 26 25 31 c15 16 26 38 26 49 0 47 -59 58
-100 18 l-26 -25 -24 25 c-27 28 -61 32 -84 9z"/>
<path d="M2301 1004 c-133 -36 -264 -145 -321 -267 -64 -135 -63 -310 2 -446
40 -84 140 -185 221 -224 162 -78 375 -72 536 13 34 19 73 46 87 62 23 29 24
33 24 207 0 235 11 221 -174 221 -149 0 -166 -5 -166 -45 0 -43 29 -55 133
-55 l97 0 0 -139 0 -138 -62 -31 c-176 -85 -406 -53 -532 75 -150 152 -149
411 2 562 83 83 180 121 312 121 121 0 228 -39 289 -104 40 -43 101 -31 101
20 0 26 -80 103 -137 132 -99 51 -294 68 -412 36z"/>
<path d="M3366 1005 c-142 -36 -271 -140 -331 -267 -142 -298 20 -638 341
-714 89 -21 235 -14 318 15 204 72 336 259 336 476 0 217 -132 404 -336 476
-78 28 -245 35 -328 14z m307 -115 c68 -26 150 -88 189 -145 83 -121 88 -311
13 -440 -162 -276 -627 -252 -756 39 -27 62 -38 159 -28 236 22 158 139 283
304 327 71 18 206 10 278 -17z"/>
<path d="M3396 624 c-22 -22 -20 -38 10 -73 l26 -31 -26 -31 c-28 -33 -29 -38
-20 -63 16 -41 69 -39 101 3 8 11 16 13 26 6 8 -5 26 -18 41 -29 24 -17 28
-17 51 -2 32 21 32 53 -1 87 l-25 26 25 31 c15 16 26 38 26 49 0 47 -59 58
-100 18 l-26 -25 -24 25 c-27 28 -61 32 -84 9z"/>
<path d="M22 998 c-9 -9 -12 -130 -12 -485 0 -457 1 -473 19 -483 13 -6 138
-10 339 -10 296 0 320 1 335 18 22 24 21 45 -1 65 -16 15 -53 17 -305 17
l-287 0 0 423 c0 366 -2 426 -16 445 -17 24 -53 29 -72 10z"/>
<path d="M2214 636 c-68 -30 -95 -116 -59 -186 31 -59 136 -81 189 -39 78 61
70 175 -15 221 -40 21 -72 22 -115 4z m75 -100 c17 -20 2 -48 -23 -44 -24 3
-34 37 -14 49 18 12 24 11 37 -5z"/>
<path d="M197 572 c-14 -16 -17 -44 -17 -180 0 -212 -6 -205 165 -200 133 3
148 9 148 53 0 42 -17 50 -118 53 l-95 4 0 128 c0 104 -3 132 -16 144 -21 21
-47 20 -67 -2z"/>
<path d="M2527 422 c-10 -10 -17 -25 -17 -34 0 -24 34 -48 67 -48 28 0 31 -4
37 -40 9 -58 49 -77 86 -40 25 25 28 124 4 158 -13 19 -24 22 -88 22 -58 0
-76 -4 -89 -18z"/>
</g>
</svg>
