<?xml version="1.0" standalone="no"?>
<!DOCTYPE svg PUBLIC "-//W3C//DTD SVG 20010904//EN"
 "http://www.w3.org/TR/2001/REC-SVG-20010904/DTD/svg10.dtd">
<svg version="1.0" xmlns="http://www.w3.org/2000/svg"
 width="509.000000pt" height="492.000000pt" viewBox="0 0 509.000000 492.000000"
 preserveAspectRatio="xMidYMid meet">

<g transform="translate(0.000000,492.000000) scale(0.100000,-0.100000)"
fill="#000000" stroke="none">
<path d="M3173 4898 c-17 -21 -33 -79 -33 -115 0 -66 44 -131 115 -167 27 -14
28 -16 8 -16 -14 0 -23 -6 -23 -16 0 -11 8 -14 28 -12 16 2 26 8 24 17 -2 9 3
11 13 7 9 -3 23 -6 31 -6 8 0 14 -8 14 -18 0 -24 19 -42 37 -35 11 5 11 9 -4
25 -18 20 -17 20 32 13 105 -13 99 -8 92 -81 -8 -78 6 -84 59 -26 129 140 85
270 -99 288 -89 9 -96 13 -167 84 -69 71 -105 87 -127 58z"/>
<path d="M3240 4530 c0 -5 7 -10 15 -10 8 0 15 5 15 10 0 6 -7 10 -15 10 -8 0
-15 -4 -15 -10z"/>
<path d="M3262 4491 c-35 -43 -41 -75 -16 -85 27 -10 44 -7 44 9 0 8 -7 15
-15 15 -8 0 -15 5 -15 10 0 6 4 10 10 10 5 0 17 14 26 31 25 49 2 55 -34 10z"/>
<path d="M3330 4510 c0 -5 5 -10 10 -10 6 0 10 5 10 10 0 6 -4 10 -10 10 -5 0
-10 -4 -10 -10z"/>
<path d="M959 4442 c-110 -29 -210 -108 -272 -213 -50 -84 -57 -145 -57 -488
0 -294 1 -313 18 -306 9 4 79 9 154 12 l137 6 3 301 c3 296 3 302 26 334 13
17 33 38 45 45 16 9 125 13 406 17 l384 5 -232 153 -233 152 -156 -1 c-114 0
-175 -5 -223 -17z"/>
<path d="M1646 4452 c-2 -4 36 -34 85 -66 104 -68 124 -69 114 -2 -6 35 -4 44
10 50 9 3 13 10 10 16 -7 12 -211 14 -219 2z"/>
<path d="M2162 4265 c-11 -23 -7 -31 39 -90 28 -36 52 -65 54 -65 11 0 -27 97
-52 136 l-30 45 -11 -26z"/>
<path d="M3154 4098 c9 -47 56 -119 95 -145 68 -46 162 -39 231 16 38 31 110
127 110 148 0 29 -27 9 -59 -43 -63 -105 -156 -145 -244 -106 -46 21 -88 75
-102 135 -4 15 -14 27 -22 27 -12 0 -14 -7 -9 -32z"/>
<path d="M1954 4028 c3 -13 6 -148 6 -300 l0 -278 108 -1 c59 0 128 -4 155 -8
l47 -8 0 72 c0 68 -3 77 -47 150 -26 43 -72 134 -103 202 -53 115 -60 126
-108 159 -60 40 -66 41 -58 12z"/>
<path d="M2805 3969 c-10 -15 55 -168 76 -179 10 -6 20 -10 22 -10 3 0 -13 41
-34 90 -22 50 -39 95 -39 100 0 13 -17 13 -25 -1z"/>
<path d="M3002 3923 c-34 -81 -55 -160 -48 -179 9 -24 21 -8 36 51 7 28 24 74
37 104 27 62 28 71 9 71 -7 0 -23 -21 -34 -47z"/>
<path d="M3497 3793 c-6 -11 67 -274 76 -274 4 1 11 1 16 1 5 0 1 29 -9 65
-18 63 -18 65 0 65 49 0 310 101 310 121 0 20 -23 18 -70 -6 -59 -30 -219 -85
-248 -85 -16 0 -23 11 -34 57 -12 52 -30 76 -41 56z"/>
<path d="M1352 3194 c-148 -74 -178 -261 -61 -378 l49 -49 0 -174 c0 -189 8
-226 53 -256 50 -33 131 -17 164 32 15 22 18 54 21 212 l4 187 47 49 c56 58
77 118 68 193 -20 165 -195 259 -345 184z"/>
<path d="M2841 2828 c-23 -79 -50 -163 -60 -188 -11 -25 -19 -54 -18 -65 0
-11 -32 -146 -71 -300 -84 -331 -134 -552 -277 -1210 -58 -269 -112 -512 -119
-540 -8 -27 -17 -68 -21 -90 -3 -22 -8 -47 -11 -56 -4 -13 10 -21 63 -37 66
-20 290 -82 297 -82 3 0 22 83 32 136 9 49 31 133 159 594 68 245 154 555 190
690 36 135 98 359 137 498 l71 253 31 -3 c30 -3 31 -5 38 -58 3 -30 6 -111 7
-180 2 -198 51 -1120 97 -1807 l6 -83 189 0 189 0 -7 83 c-5 45 -8 646 -8
1335 l0 1252 -436 0 -436 0 -42 -142z"/>
<path d="M2127 156 c-214 -58 -243 -77 -203 -131 16 -22 39 -22 316 -5 254 16
272 19 266 38 -2 9 -7 43 -11 76 -6 54 -8 57 -19 35 -6 -13 -23 -30 -38 -38
-24 -14 -30 -14 -63 2 -26 12 -37 25 -41 47 -4 16 -9 30 -13 29 -3 0 -91 -24
-194 -53z"/>
<path d="M3300 144 c-91 -18 -175 -38 -187 -44 -26 -11 -32 -57 -11 -78 9 -9
88 -12 296 -12 l284 0 -6 23 c-3 12 -6 51 -7 87 -1 56 -2 61 -10 34 -19 -66
-119 -70 -149 -7 -8 18 -22 32 -30 32 -8 -1 -89 -16 -180 -35z"/>
</g>
</svg>
