<?xml version="1.0" standalone="no"?>
<!DOCTYPE svg PUBLIC "-//W3C//DTD SVG 20010904//EN"
 "http://www.w3.org/TR/2001/REC-SVG-20010904/DTD/svg10.dtd">
<svg version="1.0" xmlns="http://www.w3.org/2000/svg"
 width="64.000000pt" height="64.000000pt" viewBox="0 0 64.000000 64.000000"
 preserveAspectRatio="xMidYMid meet">

<g transform="translate(0.000000,64.000000) scale(0.100000,-0.100000)"
fill="#000000" stroke="none">
<path d="M344 436 c-12 -9 -25 -27 -28 -42 -6 -23 -11 -26 -38 -20 -17 3 -46
17 -64 31 -18 14 -35 25 -37 25 -11 0 -16 -32 -7 -54 6 -16 5 -26 -1 -28 -15
-5 28 -95 53 -112 l21 -15 -24 -5 c-13 -3 -35 -7 -49 -9 -24 -3 -23 -5 12 -20
72 -33 173 -12 225 44 22 25 53 98 53 127 0 8 7 23 15 32 21 23 10 47 -23 48
-15 0 -40 3 -57 7 -20 4 -37 1 -51 -9z"/>
</g>
</svg>
